<svg preserveAspectRatio="none" width="100%" height="100%" overflow="visible" style="display: block;" viewBox="0 0 78 18" fill="none" xmlns="http://www.w3.org/2000/svg">
<g id="car&#195;&#169;te">
<path id="Vector" d="M77.4345 11.252H65.6012C65.7493 12.5854 66.2586 13.6594 67.129 14.4743C67.9993 15.2891 69.0827 15.6965 70.379 15.6965C71.379 15.6965 72.2493 15.465 72.9901 15.002C73.7493 14.5391 74.3142 13.8817 74.6845 13.0298H77.1012C76.6753 14.3631 75.8697 15.4928 74.6845 16.4187C73.5179 17.3446 72.0827 17.8076 70.379 17.8076C69.0456 17.8076 67.8234 17.4928 66.7123 16.8631C65.6197 16.215 64.7494 15.3354 64.1012 14.2243C63.4716 13.1131 63.1568 11.8817 63.1568 10.5298C63.1568 9.17796 63.4716 7.94648 64.1012 6.83537C64.7494 5.72426 65.6197 4.85389 66.7123 4.22426C67.8234 3.57611 69.0456 3.25203 70.379 3.25203C71.6938 3.25203 72.8882 3.56685 73.9623 4.19648C75.0364 4.82611 75.879 5.70574 76.4901 6.83537C77.1197 7.965 77.4345 9.25203 77.4345 10.6965V11.252ZM70.379 5.36315C69.1568 5.36315 68.1197 5.72426 67.2679 6.44648C66.4345 7.1687 65.9068 8.13166 65.6845 9.33537H75.0179C74.7956 8.15018 74.2679 7.19648 73.4345 6.47426C72.6012 5.73352 71.5827 5.36315 70.379 5.36315Z" fill="var(--fill-0, #F5F5F5)"/>
<path id="Vector_2" d="M62.7823 15.4167V17.5279H60.1156C58.7453 17.5279 57.699 17.176 56.9767 16.4723C56.273 15.7501 55.9212 14.6853 55.9212 13.2779V5.63897H52.8101V3.52786H55.9212V8.13007e-05H58.2267V3.52786H61.9212V5.63897H58.2267V13.2779C58.2267 14.0186 58.3934 14.5649 58.7267 14.9167C59.0786 15.2501 59.6064 15.4167 60.3101 15.4167H62.7823Z" fill="var(--fill-0, #F5F5F5)"/>
<path id="Vector_3" d="M52.6111 11.2538H40.7778C40.9259 12.5871 41.4352 13.6612 42.3056 14.476C43.1759 15.2908 44.2593 15.6982 45.5556 15.6982C46.5556 15.6982 47.4259 15.4667 48.1667 15.0038C48.9259 14.5408 49.4908 13.8834 49.8611 13.0315H52.2778C51.8519 14.3649 51.0463 15.4945 49.8611 16.4204C48.6945 17.3464 47.2593 17.8093 45.5556 17.8093C44.2222 17.8093 43 17.4945 41.8889 16.8649C40.7963 16.2167 39.9259 15.3371 39.2778 14.226C38.6482 13.1149 38.3333 11.8834 38.3333 10.5315C38.3333 9.1797 38.6482 7.94822 39.2778 6.8371C39.9259 5.72599 40.7963 4.85562 41.8889 4.22599C43 3.57785 44.2222 3.25377 45.5556 3.25377C46.8704 3.25377 48.0648 3.56859 49.1389 4.19822C50.213 4.82785 51.0556 5.70748 51.6667 6.8371C52.2963 7.96673 52.6111 9.25377 52.6111 10.6982V11.2538ZM45.5556 5.36488C44.3333 5.36488 43.2963 5.72599 42.4445 6.44821C41.6111 7.17044 41.0833 8.1334 40.8611 9.3371H50.1945C49.9722 8.15192 49.4445 7.19822 48.6111 6.47599C47.7778 5.73525 46.7593 5.36488 45.5556 5.36488Z" fill="var(--fill-0, #F5F5F5)"/>
<path id="Vector_4" d="M30.1611 17.5309V3.5309H32.3556V5.7809H32.4945C32.8648 5.04016 33.4111 4.45682 34.1334 4.0309C34.8741 3.60497 35.6982 3.39201 36.6056 3.39201H38.55V5.58645H36.6056C35.3648 5.58645 34.3648 5.99386 33.6056 6.80867C32.8463 7.62349 32.4667 8.6883 32.4667 10.0031V17.5309H30.1611Z" fill="var(--fill-0, #F5F5F5)"/>
<path id="Vector_5" d="M21.5588 3.25203C23.3736 3.25203 24.7903 3.74278 25.8088 4.72426C26.8458 5.68722 27.3644 6.98352 27.3644 8.61315V17.5298H25.1699V15.1965H25.031C24.6051 15.9187 23.9384 16.5391 23.031 17.0576C22.1236 17.5576 21.0866 17.8076 19.9199 17.8076C18.957 17.8076 18.1051 17.6224 17.3644 17.252C16.6236 16.8631 16.0403 16.3446 15.6144 15.6965C15.207 15.0483 15.0033 14.3168 15.0033 13.502C15.0033 12.2798 15.457 11.2891 16.3644 10.5298C17.2718 9.75204 18.5773 9.36314 20.281 9.36314H25.0588V8.61315C25.0588 7.55759 24.744 6.75203 24.1144 6.19648C23.4847 5.64092 22.6329 5.36315 21.5588 5.36315C20.5588 5.36315 19.7533 5.59463 19.1421 6.05759C18.5496 6.50203 18.1699 7.08537 18.0033 7.80759H15.6144C15.707 6.95574 16.0033 6.18722 16.5033 5.50203C17.0218 4.79833 17.707 4.25203 18.5588 3.86315C19.4292 3.45574 20.4292 3.25203 21.5588 3.25203ZM20.4477 15.6965C21.7996 15.6965 22.8921 15.2891 23.7255 14.4743C24.5773 13.6594 25.0218 12.5946 25.0588 11.2798H20.4199C19.3829 11.2798 18.6144 11.4835 18.1144 11.8909C17.6329 12.2798 17.3921 12.7983 17.3921 13.4465C17.3921 14.1131 17.6421 14.6594 18.1421 15.0854C18.6607 15.4928 19.4292 15.6965 20.4477 15.6965Z" fill="var(--fill-0, #F5F5F5)"/>
<path id="Vector_6" d="M7.22222 17.8076C5.87037 17.8076 4.63889 17.4928 3.52778 16.8631C2.43519 16.2335 1.57407 15.3631 0.944444 14.252C0.314815 13.1409 0 11.9002 0 10.5298C0 9.15944 0.314815 7.9187 0.944444 6.80759C1.57407 5.69648 2.43519 4.82611 3.52778 4.19648C4.63889 3.56685 5.87037 3.25203 7.22222 3.25203C8.27778 3.25203 9.26852 3.465 10.1944 3.89092C11.1389 4.31685 11.9352 4.9187 12.5833 5.69648C13.2315 6.45574 13.6667 7.32611 13.8889 8.30759H11.5278C11.213 7.4187 10.6574 6.70574 9.86111 6.1687C9.08333 5.63166 8.2037 5.36315 7.22222 5.36315C5.7963 5.36315 4.63889 5.84463 3.75 6.80759C2.86111 7.75203 2.41667 8.99278 2.41667 10.5298C2.41667 12.0668 2.86111 13.3168 3.75 14.2798C4.63889 15.2243 5.7963 15.6965 7.22222 15.6965C8.2037 15.6965 9.08333 15.428 9.86111 14.8909C10.6574 14.3539 11.213 13.6409 11.5278 12.752H13.8889C13.6667 13.7335 13.2315 14.6131 12.5833 15.3909C11.9352 16.1502 11.1389 16.7428 10.1944 17.1687C9.26852 17.5946 8.27778 17.8076 7.22222 17.8076Z" fill="var(--fill-0, #F5F5F5)"/>
</g>
</svg>
