<svg preserveAspectRatio="none" width="100%" height="100%" overflow="visible" style="display: block;" viewBox="0 0 78 20" fill="none" xmlns="http://www.w3.org/2000/svg">
<g id="car&#195;&#169;te">
<path id="Vector" d="M77.4345 13.4427H65.6012C65.7493 14.776 66.2586 15.8501 67.129 16.6649C67.9993 17.4797 69.0827 17.8872 70.379 17.8872C71.379 17.8872 72.2493 17.6557 72.9901 17.1927C73.7493 16.7297 74.3142 16.0723 74.6845 15.2205H77.1012C76.6753 16.5538 75.8697 17.6834 74.6845 18.6094C73.5179 19.5353 72.0827 19.9983 70.379 19.9983C69.0456 19.9983 67.8234 19.6834 66.7123 19.0538C65.6197 18.4057 64.7494 17.526 64.1012 16.4149C63.4716 15.3038 63.1568 14.0723 63.1568 12.7205C63.1568 11.3686 63.4716 10.1372 64.1012 9.02604C64.7494 7.91493 65.6197 7.04456 66.7123 6.41493C67.8234 5.76678 69.0456 5.44271 70.379 5.44271C71.6938 5.44271 72.8882 5.75752 73.9623 6.38715C75.0364 7.01678 75.879 7.89641 76.4901 9.02604C77.1197 10.1557 77.4345 11.4427 77.4345 12.8872V13.4427ZM70.379 7.55382C69.1568 7.55382 68.1197 7.91493 67.2679 8.63715C66.4345 9.35937 65.9068 10.3223 65.6845 11.526H75.0179C74.7956 10.3409 74.2679 9.38715 73.4345 8.66493C72.6012 7.92419 71.5827 7.55382 70.379 7.55382Z" fill="var(--fill-0, #F5F5F5)"/>
<path id="Vector_2" d="M62.7823 17.6074V19.7185H60.1156C58.7453 19.7185 57.699 19.3667 56.9767 18.663C56.273 17.9408 55.9212 16.8759 55.9212 15.4685V7.82964H52.8101V5.71853H55.9212V2.19076H58.2267V5.71853H61.9212V7.82964H58.2267V15.4685C58.2267 16.2093 58.3934 16.7556 58.7267 17.1074C59.0786 17.4408 59.6064 17.6074 60.3101 17.6074H62.7823Z" fill="var(--fill-0, #F5F5F5)"/>
<path id="Vector_3" d="M52.6111 13.4444H40.7778C40.9259 14.7778 41.4352 15.8519 42.3056 16.6667C43.1759 17.4815 44.2593 17.8889 45.5556 17.8889C46.5556 17.8889 47.4259 17.6574 48.1667 17.1944C48.9259 16.7315 49.4908 16.0741 49.8611 15.2222H52.2778C51.8519 16.5556 51.0463 17.6852 49.8611 18.6111C48.6945 19.537 47.2593 20 45.5556 20C44.2222 20 43 19.6852 41.8889 19.0556C40.7963 18.4074 39.9259 17.5278 39.2778 16.4167C38.6482 15.3056 38.3333 14.0741 38.3333 12.7222C38.3333 11.3704 38.6482 10.1389 39.2778 9.02778C39.9259 7.91667 40.7963 7.0463 41.8889 6.41667C43 5.76852 44.2222 5.44445 45.5556 5.44445C46.8704 5.44445 48.0648 5.75926 49.1389 6.38889C50.213 7.01852 51.0556 7.89815 51.6667 9.02778C52.2963 10.1574 52.6111 11.4444 52.6111 12.8889V13.4444ZM45.5556 7.55556C44.3333 7.55556 43.2963 7.91667 42.4445 8.63889C41.6111 9.36111 41.0833 10.3241 40.8611 11.5278H50.1945C49.9722 10.3426 49.4445 9.38889 48.6111 8.66667C47.7778 7.92593 46.7593 7.55556 45.5556 7.55556ZM46.3611 3.94444H44.5L46.2778 0H48.9167L46.3611 3.94444Z" fill="var(--fill-0, #F5F5F5)"/>
<path id="Vector_4" d="M30.1611 19.7216V5.72157H32.3556V7.97157H32.4945C32.8648 7.23083 33.4111 6.6475 34.1334 6.22157C34.8741 5.79564 35.6982 5.58268 36.6056 5.58268H38.55V7.77713H36.6056C35.3648 7.77713 34.3648 8.18453 33.6056 8.99935C32.8463 9.81416 32.4667 10.879 32.4667 12.1938V19.7216H30.1611Z" fill="var(--fill-0, #F5F5F5)"/>
<path id="Vector_5" d="M21.5588 5.44271C23.3736 5.44271 24.7903 5.93345 25.8088 6.91493C26.8458 7.87789 27.3644 9.17419 27.3644 10.8038V19.7205H25.1699V17.3872H25.031C24.6051 18.1094 23.9384 18.7297 23.031 19.2483C22.1236 19.7483 21.0866 19.9983 19.9199 19.9983C18.957 19.9983 18.1051 19.8131 17.3644 19.4427C16.6236 19.0538 16.0403 18.5353 15.6144 17.8872C15.207 17.239 15.0033 16.5075 15.0033 15.6927C15.0033 14.4705 15.457 13.4797 16.3644 12.7205C17.2718 11.9427 18.5773 11.5538 20.281 11.5538H25.0588V10.8038C25.0588 9.74826 24.744 8.94271 24.1144 8.38715C23.4847 7.8316 22.6329 7.55382 21.5588 7.55382C20.5588 7.55382 19.7533 7.7853 19.1421 8.24826C18.5496 8.69271 18.1699 9.27604 18.0033 9.99826H15.6144C15.707 9.14641 16.0033 8.37789 16.5033 7.69271C17.0218 6.989 17.707 6.44271 18.5588 6.05382C19.4292 5.64641 20.4292 5.44271 21.5588 5.44271ZM20.4477 17.8872C21.7996 17.8872 22.8921 17.4797 23.7255 16.6649C24.5773 15.8501 25.0218 14.7853 25.0588 13.4705H20.4199C19.3829 13.4705 18.6144 13.6742 18.1144 14.0816C17.6329 14.4705 17.3921 14.989 17.3921 15.6372C17.3921 16.3038 17.6421 16.8501 18.1421 17.276C18.6607 17.6834 19.4292 17.8872 20.4477 17.8872Z" fill="var(--fill-0, #F5F5F5)"/>
<path id="Vector_6" d="M7.22222 19.9983C5.87037 19.9983 4.63889 19.6834 3.52778 19.0538C2.43519 18.4242 1.57407 17.5538 0.944444 16.4427C0.314815 15.3316 0 14.0909 0 12.7205C0 11.3501 0.314815 10.1094 0.944444 8.99826C1.57407 7.88715 2.43519 7.01678 3.52778 6.38715C4.63889 5.75752 5.87037 5.44271 7.22222 5.44271C8.27778 5.44271 9.26852 5.65567 10.1944 6.0816C11.1389 6.50752 11.9352 7.10938 12.5833 7.88715C13.2315 8.64641 13.6667 9.51678 13.8889 10.4983H11.5278C11.213 9.60937 10.6574 8.89641 9.86111 8.35937C9.08333 7.82234 8.2037 7.55382 7.22222 7.55382C5.7963 7.55382 4.63889 8.0353 3.75 8.99826C2.86111 9.94271 2.41667 11.1834 2.41667 12.7205C2.41667 14.2575 2.86111 15.5075 3.75 16.4705C4.63889 17.4149 5.7963 17.8872 7.22222 17.8872C8.2037 17.8872 9.08333 17.6186 9.86111 17.0816C10.6574 16.5446 11.213 15.8316 11.5278 14.9427H13.8889C13.6667 15.9242 13.2315 16.8038 12.5833 17.5816C11.9352 18.3409 11.1389 18.9334 10.1944 19.3594C9.26852 19.7853 8.27778 19.9983 7.22222 19.9983Z" fill="var(--fill-0, #F5F5F5)"/>
</g>
</svg>
