<svg preserveAspectRatio="none" width="100%" height="100%" overflow="visible" style="display: block;" viewBox="0 0 15 15" fill="none" xmlns="http://www.w3.org/2000/svg">
<path id="Icon" d="M2 11.3333V11.2C2 10.0799 2 9.51984 2.21799 9.09202C2.40973 8.7157 2.71569 8.40973 3.09202 8.21799C3.51984 8 4.0799 8 5.2 8H9.46667C10.5868 8 11.1468 8 11.5746 8.21799C11.951 8.40973 12.2569 8.7157 12.4487 9.09202C12.6667 9.51984 12.6667 10.0799 12.6667 11.2V11.3333M2 11.3333C1.26362 11.3333 0.666667 11.9303 0.666667 12.6667C0.666667 13.403 1.26362 14 2 14C2.73638 14 3.33333 13.403 3.33333 12.6667C3.33333 11.9303 2.73638 11.3333 2 11.3333ZM12.6667 11.3333C11.9303 11.3333 11.3333 11.9303 11.3333 12.6667C11.3333 13.403 11.9303 14 12.6667 14C13.403 14 14 13.403 14 12.6667C14 11.9303 13.403 11.3333 12.6667 11.3333ZM7.33333 11.3333C6.59695 11.3333 6 11.9303 6 12.6667C6 13.403 6.59695 14 7.33333 14C8.06971 14 8.66667 13.403 8.66667 12.6667C8.66667 11.9303 8.06971 11.3333 7.33333 11.3333ZM7.33333 11.3333V4.66667M3.33333 4.66667H11.3333C11.9546 4.66667 12.2652 4.66667 12.5102 4.56517C12.8369 4.42985 13.0965 4.17028 13.2318 3.84358C13.3333 3.59855 13.3333 3.28792 13.3333 2.66667C13.3333 2.04541 13.3333 1.73478 13.2318 1.48976C13.0965 1.16305 12.8369 0.903487 12.5102 0.768161C12.2652 0.666667 11.9546 0.666667 11.3333 0.666667H3.33333C2.71208 0.666667 2.40145 0.666667 2.15642 0.768161C1.82972 0.903487 1.57015 1.16305 1.43483 1.48976C1.33333 1.73478 1.33333 2.04541 1.33333 2.66667C1.33333 3.28792 1.33333 3.59855 1.43483 3.84358C1.57015 4.17028 1.82972 4.42985 2.15642 4.56517C2.40145 4.66667 2.71208 4.66667 3.33333 4.66667Z" stroke="var(--stroke-0, #9B9B9B)" stroke-width="1.33333" stroke-linecap="round" stroke-linejoin="round"/>
</svg>
