<svg preserveAspectRatio="none" width="100%" height="100%" overflow="visible" style="display: block;" viewBox="0 0 13 15" fill="none" xmlns="http://www.w3.org/2000/svg">
<path id="Icon" d="M11.3333 7.29412V3.86667C11.3333 2.74656 11.3333 2.18651 11.1153 1.75869C10.9236 1.38236 10.6176 1.0764 10.2413 0.884654C9.81349 0.666667 9.25344 0.666667 8.13333 0.666667H3.86667C2.74656 0.666667 2.18651 0.666667 1.75869 0.884654C1.38236 1.0764 1.0764 1.38236 0.884654 1.75869C0.666667 2.18651 0.666667 2.74656 0.666667 3.86667V10.8C0.666667 11.9201 0.666667 12.4802 0.884654 12.908C1.0764 13.2843 1.38236 13.5903 1.75869 13.782C2.18651 14 2.74656 14 3.86667 14H7.33333M7.33333 6.66667H3.33333M4.66667 9.33333H3.33333M8.66667 4H3.33333M8 10.6667H12" stroke="var(--stroke-0, #9B9B9B)" stroke-width="1.33333" stroke-linecap="round" stroke-linejoin="round"/>
</svg>
