<svg preserveAspectRatio="none" width="100%" height="100%" overflow="visible" style="display: block;" viewBox="0 0 55 13" fill="none" xmlns="http://www.w3.org/2000/svg">
<g id="montage">
<path id="Vector" d="M51.4676 9.66002C50.7956 9.66002 50.1889 9.51069 49.6476 9.21202C49.1156 8.90402 48.6909 8.48402 48.3736 7.95202C48.0656 7.42002 47.9116 6.82269 47.9116 6.16002C47.9116 5.49735 48.0656 4.90469 48.3736 4.38202C48.6816 3.85002 49.0969 3.43002 49.6196 3.12202C50.1516 2.81402 50.7396 2.66002 51.3836 2.66002C52.0089 2.66002 52.5596 2.80469 53.0356 3.09402C53.5209 3.38335 53.8989 3.78002 54.1696 4.28402C54.4496 4.78802 54.5896 5.36202 54.5896 6.00602C54.5896 6.11802 54.5803 6.23469 54.5616 6.35602C54.5523 6.46802 54.5336 6.59402 54.5056 6.73402H48.9896V5.47402H53.7076L53.1336 5.97802C53.1149 5.56735 53.0356 5.22202 52.8956 4.94202C52.7556 4.66202 52.5549 4.44735 52.2936 4.29802C52.0416 4.14869 51.7289 4.07402 51.3556 4.07402C50.9636 4.07402 50.6229 4.15802 50.3336 4.32602C50.0443 4.49402 49.8203 4.73202 49.6616 5.04002C49.5029 5.33869 49.4236 5.69802 49.4236 6.11802C49.4236 6.53802 49.5076 6.90669 49.6756 7.22402C49.8436 7.54135 50.0816 7.78869 50.3896 7.96602C50.6976 8.13402 51.0523 8.21802 51.4536 8.21802C51.7989 8.21802 52.1163 8.15735 52.4056 8.03602C52.7043 7.91469 52.9563 7.73735 53.1616 7.50402L54.1416 8.49802C53.8149 8.88069 53.4183 9.17002 52.9516 9.36602C52.4849 9.56202 51.9903 9.66002 51.4676 9.66002Z" fill="var(--fill-0, #A8A8A8)"/>
<path id="Vector_2" d="M43.1769 12.46C42.4675 12.46 41.8469 12.3294 41.3149 12.068C40.7829 11.816 40.3535 11.4567 40.0269 10.99L41.0349 9.98202C41.3055 10.318 41.6135 10.57 41.9589 10.738C42.3042 10.906 42.7195 10.99 43.2049 10.99C43.8115 10.99 44.2922 10.8314 44.6469 10.514C45.0015 10.206 45.1789 9.78135 45.1789 9.24002V7.58802L45.4449 6.10402L45.1789 4.60602V2.80002H46.7189V9.24002C46.7189 9.88402 46.5695 10.444 46.2709 10.92C45.9722 11.4054 45.5569 11.7834 45.0249 12.054C44.4929 12.3247 43.8769 12.46 43.1769 12.46ZM43.1069 9.38002C42.5095 9.38002 41.9682 9.23535 41.4829 8.94602C41.0069 8.64735 40.6289 8.24135 40.3489 7.72802C40.0782 7.21469 39.9429 6.64069 39.9429 6.00602C39.9429 5.37135 40.0782 4.80202 40.3489 4.29802C40.6289 3.79402 41.0069 3.39735 41.4829 3.10802C41.9682 2.80935 42.5095 2.66002 43.1069 2.66002C43.6389 2.66002 44.1055 2.76735 44.5069 2.98202C44.9082 3.19669 45.2209 3.49535 45.4449 3.87802C45.6689 4.25135 45.7809 4.69002 45.7809 5.19402V6.84602C45.7809 7.34069 45.6642 7.77935 45.4309 8.16202C45.2069 8.54469 44.8942 8.84335 44.4929 9.05802C44.0915 9.27269 43.6295 9.38002 43.1069 9.38002ZM43.4149 7.92402C43.7882 7.92402 44.1149 7.84469 44.3949 7.68602C44.6749 7.52735 44.8895 7.30802 45.0389 7.02802C45.1975 6.73869 45.2769 6.40269 45.2769 6.02002C45.2769 5.63735 45.1975 5.30602 45.0389 5.02602C44.8895 4.73669 44.6749 4.51269 44.3949 4.35402C44.1149 4.19535 43.7882 4.11602 43.4149 4.11602C43.0415 4.11602 42.7102 4.19535 42.4209 4.35402C42.1409 4.51269 41.9215 4.73669 41.7629 5.02602C41.6042 5.30602 41.5249 5.63735 41.5249 6.02002C41.5249 6.39335 41.6042 6.72469 41.7629 7.01402C41.9215 7.30335 42.1409 7.52735 42.4209 7.68602C42.7102 7.84469 43.0415 7.92402 43.4149 7.92402Z" fill="var(--fill-0, #A8A8A8)"/>
<path id="Vector_3" d="M35.1538 9.66002C34.5471 9.66002 33.9964 9.50602 33.5018 9.19802C33.0164 8.89002 32.6291 8.47469 32.3398 7.95202C32.0598 7.42002 31.9198 6.82735 31.9198 6.17402C31.9198 5.51135 32.0598 4.91869 32.3398 4.39602C32.6291 3.86402 33.0164 3.44402 33.5018 3.13602C33.9964 2.81869 34.5471 2.66002 35.1538 2.66002C35.6671 2.66002 36.1198 2.77202 36.5118 2.99602C36.9131 3.21069 37.2304 3.50935 37.4638 3.89202C37.6971 4.27469 37.8138 4.70869 37.8138 5.19402V7.12602C37.8138 7.61135 37.6971 8.04535 37.4638 8.42802C37.2398 8.81069 36.9271 9.11402 36.5258 9.33802C36.1245 9.55269 35.6671 9.66002 35.1538 9.66002ZM35.4058 8.20402C35.9751 8.20402 36.4324 8.01269 36.7778 7.63002C37.1324 7.24735 37.3098 6.75735 37.3098 6.16002C37.3098 5.75869 37.2304 5.40402 37.0718 5.09602C36.9131 4.78802 36.6891 4.55002 36.3998 4.38202C36.1198 4.20469 35.7884 4.11602 35.4058 4.11602C35.0324 4.11602 34.7011 4.20469 34.4118 4.38202C34.1318 4.55002 33.9078 4.78802 33.7398 5.09602C33.5811 5.40402 33.5018 5.75869 33.5018 6.16002C33.5018 6.56135 33.5811 6.91602 33.7398 7.22402C33.9078 7.53202 34.1318 7.77469 34.4118 7.95202C34.7011 8.12002 35.0324 8.20402 35.4058 8.20402ZM37.2118 9.52002V7.71402L37.4778 6.07602L37.2118 4.45202V2.80002H38.7518V9.52002H37.2118Z" fill="var(--fill-0, #A8A8A8)"/>
<path id="Vector_4" d="M28.3462 9.52002V1.95503e-05H29.8862V9.52002H28.3462ZM26.7362 4.20002V2.80002H31.4962V4.20002H26.7362Z" fill="var(--fill-0, #A8A8A8)"/>
<path id="Vector_5" d="M24.3853 9.52002V5.64202C24.3853 5.19402 24.2406 4.82535 23.9513 4.53602C23.6713 4.24669 23.3073 4.10202 22.8593 4.10202C22.5606 4.10202 22.2946 4.16735 22.0613 4.29802C21.8279 4.42869 21.6459 4.61069 21.5153 4.84402C21.3846 5.07735 21.3193 5.34335 21.3193 5.64202L20.7173 5.30602C20.7173 4.79269 20.8293 4.34002 21.0533 3.94802C21.2773 3.54669 21.5853 3.23402 21.9773 3.01002C22.3786 2.77669 22.8266 2.66002 23.3213 2.66002C23.8253 2.66002 24.2733 2.79069 24.6653 3.05202C25.0573 3.30402 25.3653 3.63535 25.5893 4.04602C25.8133 4.44735 25.9253 4.86735 25.9253 5.30602V9.52002H24.3853ZM19.7793 9.52002V2.80002H21.3193V9.52002H19.7793Z" fill="var(--fill-0, #A8A8A8)"/>
<path id="Vector_6" d="M15.0546 9.66002C14.4013 9.66002 13.8086 9.50602 13.2766 9.19802C12.7446 8.88069 12.3199 8.45602 12.0026 7.92402C11.6946 7.39202 11.5406 6.79935 11.5406 6.14602C11.5406 5.49269 11.6946 4.90469 12.0026 4.38202C12.3199 3.85935 12.7446 3.44402 13.2766 3.13602C13.8086 2.81869 14.4013 2.66002 15.0546 2.66002C15.7173 2.66002 16.3146 2.81402 16.8466 3.12202C17.3786 3.43002 17.7986 3.85002 18.1066 4.38202C18.4239 4.90469 18.5826 5.49269 18.5826 6.14602C18.5826 6.79935 18.4239 7.39202 18.1066 7.92402C17.7986 8.45602 17.3786 8.88069 16.8466 9.19802C16.3146 9.50602 15.7173 9.66002 15.0546 9.66002ZM15.0546 8.17602C15.4373 8.17602 15.7733 8.09202 16.0626 7.92402C16.3613 7.74669 16.5899 7.50402 16.7486 7.19602C16.9166 6.88802 17.0006 6.53802 17.0006 6.14602C17.0006 5.75402 16.9166 5.40869 16.7486 5.11002C16.5806 4.81135 16.3519 4.57802 16.0626 4.41002C15.7733 4.23269 15.4373 4.14402 15.0546 4.14402C14.6813 4.14402 14.3453 4.23269 14.0466 4.41002C13.7573 4.57802 13.5286 4.81135 13.3606 5.11002C13.2019 5.40869 13.1226 5.75402 13.1226 6.14602C13.1226 6.53802 13.2019 6.88802 13.3606 7.19602C13.5286 7.50402 13.7573 7.74669 14.0466 7.92402C14.3453 8.09202 14.6813 8.17602 15.0546 8.17602Z" fill="var(--fill-0, #A8A8A8)"/>
<path id="Vector_7" d="M0 9.52002V2.80002H1.54V9.52002H0ZM4.466 9.52002V5.51602C4.466 5.06802 4.326 4.72269 4.046 4.48002C3.766 4.22802 3.42067 4.10202 3.01 4.10202C2.73 4.10202 2.478 4.15802 2.254 4.27002C2.03933 4.38202 1.86667 4.54535 1.736 4.76002C1.60533 4.96535 1.54 5.21735 1.54 5.51602L0.938 5.18002C0.938 4.66669 1.05 4.22335 1.274 3.85002C1.498 3.47669 1.80133 3.18735 2.184 2.98202C2.56667 2.76735 2.996 2.66002 3.472 2.66002C3.948 2.66002 4.37733 2.76269 4.76 2.96802C5.14267 3.17335 5.446 3.46269 5.67 3.83602C5.894 4.20935 6.006 4.65735 6.006 5.18002V9.52002H4.466ZM8.932 9.52002V5.51602C8.932 5.06802 8.792 4.72269 8.512 4.48002C8.232 4.22802 7.88667 4.10202 7.476 4.10202C7.20533 4.10202 6.958 4.15802 6.734 4.27002C6.51 4.38202 6.33267 4.54535 6.202 4.76002C6.07133 4.96535 6.006 5.21735 6.006 5.51602L5.138 5.18002C5.18467 4.66669 5.334 4.22335 5.586 3.85002C5.838 3.47669 6.16 3.18735 6.552 2.98202C6.95333 2.76735 7.392 2.66002 7.868 2.66002C8.35333 2.66002 8.792 2.76269 9.184 2.96802C9.576 3.17335 9.88867 3.46269 10.122 3.83602C10.3553 4.20935 10.472 4.65735 10.472 5.18002V9.52002H8.932Z" fill="var(--fill-0, #A8A8A8)"/>
</g>
</svg>
