<svg preserveAspectRatio="none" width="100%" height="100%" overflow="visible" style="display: block;" viewBox="0 0 69 20" fill="none" xmlns="http://www.w3.org/2000/svg">
<g id="monty">
<path id="Union" d="M62.3574 10.7656L65.1533 3.28418H68.6436L63.3965 15.168L61.249 20H57.8574L60.666 14.0566L56.1973 3.28418H59.6631L62.3574 10.7656ZM26.5068 3.01465C27.7106 3.01467 28.784 3.2917 29.7275 3.84473C30.6874 4.38158 31.4439 5.11374 31.9971 6.04102C32.5502 6.95208 32.8271 7.98553 32.8271 9.14062C32.8271 10.2956 32.5501 11.3446 31.9971 12.2881C31.4439 13.2154 30.6874 13.9557 29.7275 14.5088C28.784 15.0456 27.7187 15.3144 26.5312 15.3145C25.3436 15.3145 24.2694 15.0457 23.3096 14.5088C22.3661 13.9557 21.6094 13.2153 21.04 12.2881C20.487 11.3447 20.211 10.2955 20.2109 9.14062C20.2109 7.98559 20.487 6.95204 21.04 6.04102C21.5931 5.11375 22.3498 4.38159 23.3096 3.84473C24.2694 3.29158 25.3355 3.01465 26.5068 3.01465ZM13.9346 3.03906C14.813 3.03909 15.6022 3.22642 16.3018 3.60059C17.0012 3.95846 17.5543 4.47899 17.9609 5.16211C18.3676 5.84535 18.5713 6.65904 18.5713 7.60254V15.0703H15.374V8.11523C15.374 7.43194 15.1541 6.90348 14.7148 6.5293C14.2919 6.13891 13.7633 5.94336 13.1289 5.94336C12.7223 5.94338 12.3402 6.03304 11.9824 6.21191C11.6408 6.3746 11.372 6.61896 11.1768 6.94434C10.9817 7.26964 10.8838 7.65987 10.8838 8.11523V15.0703H7.6875V8.11523C7.6875 7.43205 7.46744 6.90347 7.02832 6.5293C6.60542 6.13893 6.07669 5.94344 5.44238 5.94336C5.01939 5.94336 4.63657 6.03295 4.29492 6.21191C3.95333 6.3746 3.68446 6.61899 3.48926 6.94434C3.29424 7.26961 3.19727 7.65995 3.19727 8.11523V15.0703H0V3.2832H3.19727V4.30762C3.48335 4.0282 3.80785 3.79179 4.17285 3.60059C4.85612 3.22641 5.629 3.03908 6.49121 3.03906C7.30462 3.03906 8.04491 3.22644 8.71191 3.60059C9.27163 3.90092 9.73268 4.31111 10.0977 4.8291C10.4922 4.32502 10.9731 3.92288 11.543 3.625C12.2588 3.23458 13.0561 3.03906 13.9346 3.03906ZM41.3281 3.03906C42.1903 3.03912 42.9633 3.25903 43.6465 3.69824C44.3296 4.12119 44.8664 4.68242 45.2568 5.38184C45.6473 6.06507 45.8427 6.80545 45.8428 7.60254V15.0703H42.6455V8.31055C42.6455 7.61098 42.4256 7.0418 41.9863 6.60254C41.5471 6.1633 40.9779 5.94336 40.2783 5.94336C39.8229 5.94338 39.4164 6.04118 39.0586 6.23633C38.7008 6.4315 38.4156 6.70767 38.2041 7.06543C38.0089 7.42335 37.9111 7.83875 37.9111 8.31055V15.0703H34.7148V3.2832H37.9111V4.39062C38.2027 4.09109 38.5357 3.83507 38.9121 3.625C39.6279 3.23461 40.4334 3.03906 41.3281 3.03906ZM52.4336 3.2832H55.1982V6.08984H52.4355L52.4404 12.4492H54.46V15.0703H49.2441V6.08984H46.4863V3.2832H49.2441V1.62207L52.4316 0L52.4336 3.2832ZM26.5068 6.0166C25.9213 6.0166 25.4008 6.15516 24.9453 6.43164C24.4898 6.69191 24.1314 7.05759 23.8711 7.5293C23.6108 8.0011 23.4805 8.54682 23.4805 9.16504C23.4805 9.78308 23.6109 10.3363 23.8711 10.8242C24.1314 11.296 24.4898 11.6697 24.9453 11.9463C25.4008 12.2065 25.9212 12.3369 26.5068 12.3369C27.1087 12.3369 27.6373 12.2066 28.0928 11.9463C28.5646 11.6697 28.923 11.296 29.167 10.8242C29.4272 10.3363 29.5566 9.78308 29.5566 9.16504C29.5566 8.54682 29.4273 8.0011 29.167 7.5293C28.9067 7.05753 28.5483 6.69193 28.0928 6.43164C27.6373 6.15509 27.1087 6.01663 26.5068 6.0166Z" fill="var(--fill-0, white)"/>
</g>
</svg>
