<svg preserveAspectRatio="none" width="100%" height="100%" overflow="visible" style="display: block;" viewBox="0 0 83 24" fill="none" xmlns="http://www.w3.org/2000/svg">
<g id="monty">
<path id="Union" d="M74.8291 12.9189L78.1846 3.94043H82.3721L76.0762 18.2021L73.499 24H69.4287L72.7988 16.8682L67.4375 3.94043H71.5957L74.8291 12.9189ZM31.8076 3.61816C33.2523 3.61816 34.5415 3.94951 35.6738 4.61328C36.8255 5.25747 37.7327 6.1364 38.3965 7.24902C39.0602 8.34217 39.3925 9.58185 39.3926 10.9678C39.3926 12.3539 39.0603 13.6138 38.3965 14.7461C37.7327 15.8587 36.8255 16.7474 35.6738 17.4111C34.5415 18.0554 33.2621 18.377 31.8369 18.377C30.4119 18.3769 29.1234 18.0553 27.9717 17.4111C26.8394 16.7474 25.9313 15.8589 25.248 14.7461C24.5843 13.6138 24.2529 12.3539 24.2529 10.9678C24.253 9.58186 24.5844 8.34217 25.248 7.24902C25.9118 6.13622 26.8198 5.25753 27.9717 4.61328C29.1234 3.94959 30.4022 3.61823 31.8076 3.61816ZM62.9209 3.94043H66.2373V7.30762H62.9229L62.9287 14.9385H65.3525V18.085H59.0928V7.30762H55.7832V3.94043H59.0928V1.94629L62.918 0L62.9209 3.94043ZM16.7217 3.64746C17.7756 3.64752 18.7223 3.8715 19.5615 4.32031C20.401 4.74981 21.0647 5.37535 21.5527 6.19531C22.0407 7.01518 22.2851 7.9909 22.2852 9.12305V18.084H18.4492V9.73828C18.4492 8.91835 18.1853 8.28398 17.6582 7.83496C17.1506 7.36644 16.5163 7.13184 15.7549 7.13184C15.2669 7.13184 14.8083 7.23946 14.3789 7.4541C13.9689 7.64933 13.6464 7.94255 13.4121 8.33301C13.1779 8.7234 13.0606 9.19178 13.0605 9.73828V18.084H9.22461V9.73828C9.2246 8.91835 8.9607 8.28398 8.43359 7.83496C7.92602 7.36647 7.29162 7.13184 6.53027 7.13184C6.02282 7.13185 5.56419 7.23945 5.1543 7.4541C4.74432 7.64933 4.42177 7.94255 4.1875 8.33301C3.95335 8.72339 3.83594 9.1918 3.83594 9.73828V18.084H0V3.94043H3.83594V5.1709C4.17957 4.83503 4.56922 4.55005 5.00781 4.32031C5.82768 3.87142 6.75548 3.64746 7.79004 3.64746C8.76582 3.64753 9.65391 3.87153 10.4541 4.32031C11.1258 4.68071 11.6792 5.17335 12.1172 5.79492C12.5907 5.19003 13.1677 4.70706 13.8516 4.34961C14.7105 3.88117 15.6676 3.64746 16.7217 3.64746ZM49.5938 3.64746C50.6281 3.64753 51.5553 3.91064 52.375 4.4375C53.195 4.94509 53.84 5.6195 54.3086 6.45898C54.7769 7.27869 55.0107 8.16677 55.0107 9.12305V18.084H51.1748V9.97266C51.1748 9.13318 50.9109 8.44997 50.3838 7.92285C49.8567 7.39577 49.1734 7.13184 48.334 7.13184C47.7875 7.13186 47.2995 7.24921 46.8701 7.4834C46.4406 7.71767 46.0985 8.04999 45.8447 8.47949C45.6106 8.9089 45.4932 9.40667 45.4932 9.97266V18.084H41.6572V3.94043H45.4932V5.26953C45.8432 4.90988 46.2425 4.6018 46.6943 4.34961C47.5533 3.88116 48.5201 3.64746 49.5938 3.64746ZM31.8076 7.21973C31.105 7.21979 30.4801 7.38595 29.9336 7.71777C29.3872 8.03007 28.9578 8.46923 28.6455 9.03516C28.3332 9.6012 28.1768 10.2554 28.1768 10.9971C28.1768 11.7389 28.3331 12.4036 28.6455 12.9893C28.9578 13.5552 29.3872 14.0041 29.9336 14.3359C30.4801 14.6482 31.105 14.8046 31.8076 14.8047C32.53 14.8047 33.1653 14.6483 33.7119 14.3359C34.2778 14.0041 34.7072 13.5552 35 12.9893C35.3124 12.4036 35.4688 11.7389 35.4688 10.9971C35.4687 10.2554 35.3123 9.6012 35 9.03516C34.6877 8.46924 34.2583 8.03008 33.7119 7.71777C33.1653 7.38589 32.53 7.21973 31.8076 7.21973Z" fill="var(--fill-0, white)"/>
</g>
</svg>
