<svg preserveAspectRatio="none" width="100%" height="100%" overflow="visible" style="display: block;" viewBox="0 0 24 24" fill="none" xmlns="http://www.w3.org/2000/svg">
<g id="Frame 2131329183">
<g id="Vector">
<path d="M1.26988 15.0657C-0.423293 13.3726 -0.423293 10.6274 1.26988 8.93425C2.96305 7.24109 5.70822 7.24109 7.40139 8.93425L10.4671 12L7.40139 15.0657C5.70822 16.7589 2.96305 16.7589 1.26988 15.0657Z" fill="var(--fill-0, #A4A4A4)"/>
<path d="M8.93424 7.40137C7.24107 5.7082 7.24107 2.96304 8.93424 1.26987C10.6274 -0.423291 13.3726 -0.423291 15.0658 1.26987C16.7589 2.96304 16.7589 5.7082 15.0658 7.40137L12 10.4671L8.93424 7.40137Z" fill="var(--fill-0, #A4A4A4)"/>
<path d="M8.93424 22.7301C7.24107 21.037 7.24107 18.2918 8.93424 16.5986L12 13.5329L15.0658 16.5986C16.7589 18.2918 16.7589 21.037 15.0658 22.7301C13.3726 24.4233 10.6274 24.4233 8.93424 22.7301Z" fill="var(--fill-0, #A4A4A4)"/>
<path d="M13.5329 12L16.5986 8.93425C18.2918 7.24109 21.037 7.24109 22.7301 8.93425C24.4233 10.6274 24.4233 13.3726 22.7301 15.0657C21.037 16.7589 18.2918 16.7589 16.5986 15.0657L13.5329 12Z" fill="var(--fill-0, #A4A4A4)"/>
</g>
</g>
</svg>
