<svg width="90" height="120" viewBox="0 0 90 120" fill="none" xmlns="http://www.w3.org/2000/svg">
<g clip-path="url(#clip0_1231_4053)">
<path d="M0 12C0 5.37259 5.37258 0 12 0H51L90 39V108C90 114.627 84.6274 120 78 120H12C5.37258 120 0 114.627 0 108V12Z" fill="#2E2E2E"/>
<path d="M60 39H90L51 0V30C51 34.9706 55.0294 39 60 39Z" fill="white" fill-opacity="0.5"/>
</g>
<path d="M16.4205 103H11.2642V88.4545H16.4631C17.9261 88.4545 19.1856 88.7457 20.2415 89.3281C21.2973 89.9058 22.1094 90.7367 22.6776 91.821C23.2505 92.9053 23.5369 94.2027 23.5369 95.7131C23.5369 97.2282 23.2505 98.5303 22.6776 99.6193C22.1094 100.708 21.2926 101.544 20.2273 102.126C19.1667 102.709 17.8977 103 16.4205 103ZM14.3395 100.365H16.2926C17.2017 100.365 17.9664 100.204 18.5866 99.8821C19.2116 99.5554 19.6804 99.0511 19.9929 98.3693C20.3101 97.6828 20.4688 96.7973 20.4688 95.7131C20.4688 94.6383 20.3101 93.7599 19.9929 93.0781C19.6804 92.3963 19.214 91.8944 18.5938 91.5724C17.9735 91.2505 17.2088 91.0895 16.2997 91.0895H14.3395V100.365ZM38.7815 95.7273C38.7815 97.3134 38.4808 98.6629 37.8795 99.7756C37.2829 100.888 36.4685 101.738 35.4363 102.325C34.4088 102.908 33.2535 103.199 31.9704 103.199C30.6778 103.199 29.5177 102.905 28.4903 102.318C27.4628 101.731 26.6508 100.881 26.0542 99.7685C25.4576 98.6558 25.1593 97.3087 25.1593 95.7273C25.1593 94.1411 25.4576 92.7917 26.0542 91.679C26.6508 90.5663 27.4628 89.7187 28.4903 89.1364C29.5177 88.5492 30.6778 88.2557 31.9704 88.2557C33.2535 88.2557 34.4088 88.5492 35.4363 89.1364C36.4685 89.7187 37.2829 90.5663 37.8795 91.679C38.4808 92.7917 38.7815 94.1411 38.7815 95.7273ZM35.6636 95.7273C35.6636 94.6998 35.5097 93.8333 35.2019 93.1278C34.8989 92.4223 34.4704 91.8873 33.9164 91.5227C33.3624 91.1581 32.7138 90.9759 31.9704 90.9759C31.227 90.9759 30.5783 91.1581 30.0244 91.5227C29.4704 91.8873 29.0395 92.4223 28.7317 93.1278C28.4287 93.8333 28.2772 94.6998 28.2772 95.7273C28.2772 96.7547 28.4287 97.6212 28.7317 98.3267C29.0395 99.0322 29.4704 99.5672 30.0244 99.9318C30.5783 100.296 31.227 100.479 31.9704 100.479C32.7138 100.479 33.3624 100.296 33.9164 99.9318C34.4704 99.5672 34.8989 99.0322 35.2019 98.3267C35.5097 97.6212 35.6636 96.7547 35.6636 95.7273ZM53.4933 93.5469H50.3825C50.3257 93.1444 50.2097 92.7869 50.0345 92.4744C49.8593 92.1572 49.6344 91.8873 49.3598 91.6648C49.0852 91.4422 48.7679 91.2718 48.4081 91.1534C48.053 91.035 47.6671 90.9759 47.2504 90.9759C46.4976 90.9759 45.8418 91.1629 45.2831 91.5369C44.7244 91.9062 44.2911 92.446 43.9834 93.1562C43.6756 93.8617 43.5217 94.7187 43.5217 95.7273C43.5217 96.7642 43.6756 97.6354 43.9834 98.3409C44.2959 99.0464 44.7315 99.5791 45.2902 99.9389C45.8489 100.299 46.4952 100.479 47.2291 100.479C47.6411 100.479 48.0222 100.424 48.3726 100.315C48.7277 100.206 49.0426 100.048 49.3172 99.8395C49.5918 99.6264 49.8191 99.3684 49.999 99.0653C50.1837 98.7623 50.3115 98.4167 50.3825 98.0284L53.4933 98.0426C53.4128 98.7102 53.2116 99.3542 52.8896 99.9744C52.5724 100.59 52.1439 101.142 51.6041 101.629C51.0691 102.112 50.4299 102.496 49.6865 102.78C48.9479 103.059 48.1122 103.199 47.1794 103.199C45.8821 103.199 44.722 102.905 43.6993 102.318C42.6813 101.731 41.8764 100.881 41.2845 99.7685C40.6974 98.6558 40.4038 97.3087 40.4038 95.7273C40.4038 94.1411 40.7021 92.7917 41.2987 91.679C41.8953 90.5663 42.705 89.7187 43.7277 89.1364C44.7504 88.5492 45.901 88.2557 47.1794 88.2557C48.0222 88.2557 48.8035 88.3741 49.5232 88.6108C50.2476 88.8475 50.8892 89.1932 51.4479 89.6477C52.0066 90.0975 52.4611 90.6491 52.8115 91.3026C53.1666 91.956 53.3939 92.7041 53.4933 93.5469ZM57.8696 88.4545L60.8028 93.4119H60.9165L63.8639 88.4545H67.3369L62.898 95.7273L67.4364 103H63.8994L60.9165 98.0355H60.8028L57.8199 103H54.2972L58.8497 95.7273L54.3824 88.4545H57.8696Z" fill="white"/>
<defs>
<clipPath id="clip0_1231_4053">
<rect width="90" height="120" fill="white"/>
</clipPath>
</defs>
</svg>
