<svg width="90" height="120" viewBox="0 0 90 120" fill="none" xmlns="http://www.w3.org/2000/svg">
<g clip-path="url(#clip0_1231_1963)">
<g filter="url(#filter0_d_1231_1963)">
<path d="M0 12C0 5.37259 5.37258 0 12 0H51L90 39V108C90 114.627 84.6274 120 78 120H12C5.37258 120 0 114.627 0 108V12Z" fill="#2E2E2E"/>
</g>
<path d="M60 39H90L51 0V30C51 34.9706 55.0294 39 60 39Z" fill="white" fill-opacity="0.5"/>
</g>
<path d="M14.1477 88.4545L17.081 93.4119H17.1946L20.142 88.4545H23.6151L19.1761 95.7273L23.7145 103H20.1776L17.1946 98.0355H17.081L14.098 103H10.5753L15.1278 95.7273L10.6605 88.4545H14.1477ZM25.1611 103V88.4545H28.2364V100.464H34.4722V103H25.1611ZM43.9994 92.6378C43.9425 92.0649 43.6987 91.6198 43.2678 91.3026C42.837 90.9853 42.2522 90.8267 41.5136 90.8267C41.0117 90.8267 40.5879 90.8977 40.2423 91.0398C39.8966 91.1771 39.6315 91.3688 39.4468 91.6151C39.2669 91.8613 39.1769 92.1406 39.1769 92.4531C39.1674 92.7135 39.2219 92.9408 39.3403 93.1349C39.4634 93.3291 39.6315 93.4972 39.8445 93.6392C40.0576 93.7765 40.3038 93.8973 40.5832 94.0014C40.8625 94.1009 41.1608 94.1861 41.4781 94.2571L42.7849 94.5696C43.4193 94.7116 44.0017 94.901 44.532 95.1378C45.0623 95.3745 45.5216 95.6657 45.9099 96.0114C46.2981 96.357 46.5988 96.7642 46.8119 97.233C47.0297 97.7017 47.1409 98.2391 47.1457 98.8452C47.1409 99.7353 46.9137 100.507 46.4639 101.161C46.0188 101.809 45.3748 102.313 44.532 102.673C43.694 103.028 42.6831 103.206 41.4994 103.206C40.3251 103.206 39.3024 103.026 38.4312 102.666C37.5647 102.306 36.8876 101.774 36.3999 101.068C35.917 100.358 35.6637 99.4796 35.64 98.4332H38.6158C38.649 98.9209 38.7887 99.3281 39.0349 99.6548C39.2858 99.9768 39.6196 100.221 40.0363 100.386C40.4577 100.547 40.9335 100.628 41.4639 100.628C41.9847 100.628 42.4369 100.552 42.8204 100.401C43.2086 100.249 43.5093 100.038 43.7224 99.7685C43.9354 99.4986 44.042 99.1884 44.042 98.8381C44.042 98.5114 43.9449 98.2367 43.7508 98.0142C43.5614 97.7917 43.282 97.6023 42.9127 97.446C42.5481 97.2898 42.1007 97.1477 41.5704 97.0199L39.9866 96.6222C38.7603 96.3239 37.792 95.8575 37.0817 95.223C36.3715 94.5885 36.0188 93.7339 36.0235 92.6591C36.0188 91.7784 36.2531 91.009 36.7266 90.3509C37.2049 89.6927 37.8606 89.179 38.694 88.8097C39.5273 88.4403 40.4743 88.2557 41.5349 88.2557C42.6144 88.2557 43.5567 88.4403 44.3616 88.8097C45.1712 89.179 45.801 89.6927 46.2508 90.3509C46.7006 91.009 46.9326 91.7713 46.9468 92.6378H43.9994Z" fill="white"/>
<defs>
<filter id="filter0_d_1231_1963" x="-32" y="-20" width="154" height="184" filterUnits="userSpaceOnUse" color-interpolation-filters="sRGB">
<feFlood flood-opacity="0" result="BackgroundImageFix"/>
<feColorMatrix in="SourceAlpha" type="matrix" values="0 0 0 0 0 0 0 0 0 0 0 0 0 0 0 0 0 0 127 0" result="hardAlpha"/>
<feOffset dy="12"/>
<feGaussianBlur stdDeviation="16"/>
<feComposite in2="hardAlpha" operator="out"/>
<feColorMatrix type="matrix" values="0 0 0 0 0 0 0 0 0 0 0 0 0 0 0 0 0 0 0.5 0"/>
<feBlend mode="normal" in2="BackgroundImageFix" result="effect1_dropShadow_1231_1963"/>
<feBlend mode="normal" in="SourceGraphic" in2="effect1_dropShadow_1231_1963" result="shape"/>
</filter>
<clipPath id="clip0_1231_1963">
<rect width="90" height="120" fill="white"/>
</clipPath>
</defs>
</svg>
