<svg width="154" height="184" viewBox="0 0 154 184" fill="none" xmlns="http://www.w3.org/2000/svg">
<g filter="url(#filter0_d_1231_1957)">
<g clip-path="url(#clip0_1231_1957)">
<g filter="url(#filter1_d_1231_1957)">
<path d="M32 32C32 25.3726 37.3726 20 44 20H83L122 59V128C122 134.627 116.627 140 110 140H44C37.3726 140 32 134.627 32 128V32Z" fill="#2E2E2E"/>
</g>
<path d="M92 59H122L83 20V50C83 54.9706 87.0294 59 92 59Z" fill="white" fill-opacity="0.5"/>
</g>
<path d="M48.4205 123H43.2642V108.455H48.4631C49.9261 108.455 51.1856 108.746 52.2415 109.328C53.2973 109.906 54.1094 110.737 54.6776 111.821C55.2505 112.905 55.5369 114.203 55.5369 115.713C55.5369 117.228 55.2505 118.53 54.6776 119.619C54.1094 120.708 53.2926 121.544 52.2273 122.126C51.1667 122.709 49.8977 123 48.4205 123ZM46.3395 120.365H48.2926C49.2017 120.365 49.9664 120.204 50.5866 119.882C51.2116 119.555 51.6804 119.051 51.9929 118.369C52.3101 117.683 52.4688 116.797 52.4688 115.713C52.4688 114.638 52.3101 113.76 51.9929 113.078C51.6804 112.396 51.214 111.894 50.5938 111.572C49.9735 111.25 49.2088 111.089 48.2997 111.089H46.3395V120.365ZM70.7815 115.727C70.7815 117.313 70.4808 118.663 69.8795 119.776C69.2829 120.888 68.4685 121.738 67.4363 122.325C66.4088 122.908 65.2535 123.199 63.9704 123.199C62.6778 123.199 61.5177 122.905 60.4903 122.318C59.4628 121.731 58.6508 120.881 58.0542 119.768C57.4576 118.656 57.1593 117.309 57.1593 115.727C57.1593 114.141 57.4576 112.792 58.0542 111.679C58.6508 110.566 59.4628 109.719 60.4903 109.136C61.5177 108.549 62.6778 108.256 63.9704 108.256C65.2535 108.256 66.4088 108.549 67.4363 109.136C68.4685 109.719 69.2829 110.566 69.8795 111.679C70.4808 112.792 70.7815 114.141 70.7815 115.727ZM67.6636 115.727C67.6636 114.7 67.5097 113.833 67.2019 113.128C66.8989 112.422 66.4704 111.887 65.9164 111.523C65.3624 111.158 64.7138 110.976 63.9704 110.976C63.227 110.976 62.5783 111.158 62.0244 111.523C61.4704 111.887 61.0395 112.422 60.7317 113.128C60.4287 113.833 60.2772 114.7 60.2772 115.727C60.2772 116.755 60.4287 117.621 60.7317 118.327C61.0395 119.032 61.4704 119.567 62.0244 119.932C62.5783 120.296 63.227 120.479 63.9704 120.479C64.7138 120.479 65.3624 120.296 65.9164 119.932C66.4704 119.567 66.8989 119.032 67.2019 118.327C67.5097 117.621 67.6636 116.755 67.6636 115.727ZM85.4933 113.547H82.3825C82.3257 113.144 82.2097 112.787 82.0345 112.474C81.8593 112.157 81.6344 111.887 81.3598 111.665C81.0852 111.442 80.7679 111.272 80.4081 111.153C80.053 111.035 79.6671 110.976 79.2504 110.976C78.4976 110.976 77.8418 111.163 77.2831 111.537C76.7244 111.906 76.2911 112.446 75.9834 113.156C75.6756 113.862 75.5217 114.719 75.5217 115.727C75.5217 116.764 75.6756 117.635 75.9834 118.341C76.2959 119.046 76.7315 119.579 77.2902 119.939C77.8489 120.299 78.4952 120.479 79.2291 120.479C79.6411 120.479 80.0222 120.424 80.3726 120.315C80.7277 120.206 81.0426 120.048 81.3172 119.839C81.5918 119.626 81.8191 119.368 81.999 119.065C82.1837 118.762 82.3115 118.417 82.3825 118.028L85.4933 118.043C85.4128 118.71 85.2116 119.354 84.8896 119.974C84.5724 120.59 84.1439 121.142 83.6041 121.629C83.0691 122.112 82.4299 122.496 81.6865 122.78C80.9479 123.059 80.1122 123.199 79.1794 123.199C77.8821 123.199 76.722 122.905 75.6993 122.318C74.6813 121.731 73.8764 120.881 73.2845 119.768C72.6974 118.656 72.4038 117.309 72.4038 115.727C72.4038 114.141 72.7021 112.792 73.2987 111.679C73.8953 110.566 74.705 109.719 75.7277 109.136C76.7504 108.549 77.901 108.256 79.1794 108.256C80.0222 108.256 80.8035 108.374 81.5232 108.611C82.2476 108.848 82.8892 109.193 83.4479 109.648C84.0066 110.098 84.4611 110.649 84.8115 111.303C85.1666 111.956 85.3939 112.704 85.4933 113.547ZM89.8696 108.455L92.8028 113.412H92.9165L95.8639 108.455H99.3369L94.898 115.727L99.4364 123H95.8994L92.9165 118.036H92.8028L89.8199 123H86.2972L90.8497 115.727L86.3824 108.455H89.8696Z" fill="white"/>
</g>
<defs>
<filter id="filter0_d_1231_1957" x="0" y="0" width="154" height="184" filterUnits="userSpaceOnUse" color-interpolation-filters="sRGB">
<feFlood flood-opacity="0" result="BackgroundImageFix"/>
<feColorMatrix in="SourceAlpha" type="matrix" values="0 0 0 0 0 0 0 0 0 0 0 0 0 0 0 0 0 0 127 0" result="hardAlpha"/>
<feOffset dy="12"/>
<feGaussianBlur stdDeviation="16"/>
<feComposite in2="hardAlpha" operator="out"/>
<feColorMatrix type="matrix" values="0 0 0 0 0 0 0 0 0 0 0 0 0 0 0 0 0 0 0.5 0"/>
<feBlend mode="normal" in2="BackgroundImageFix" result="effect1_dropShadow_1231_1957"/>
<feBlend mode="normal" in="SourceGraphic" in2="effect1_dropShadow_1231_1957" result="shape"/>
</filter>
<filter id="filter1_d_1231_1957" x="0" y="20" width="154" height="184" filterUnits="userSpaceOnUse" color-interpolation-filters="sRGB">
<feFlood flood-opacity="0" result="BackgroundImageFix"/>
<feColorMatrix in="SourceAlpha" type="matrix" values="0 0 0 0 0 0 0 0 0 0 0 0 0 0 0 0 0 0 127 0" result="hardAlpha"/>
<feOffset dy="32"/>
<feGaussianBlur stdDeviation="16"/>
<feComposite in2="hardAlpha" operator="out"/>
<feColorMatrix type="matrix" values="0 0 0 0 0 0 0 0 0 0 0 0 0 0 0 0 0 0 0.5 0"/>
<feBlend mode="normal" in2="BackgroundImageFix" result="effect1_dropShadow_1231_1957"/>
<feBlend mode="normal" in="SourceGraphic" in2="effect1_dropShadow_1231_1957" result="shape"/>
</filter>
<clipPath id="clip0_1231_1957">
<rect width="90" height="120" fill="white" transform="translate(32 20)"/>
</clipPath>
</defs>
</svg>
