<svg width="90" height="120" viewBox="0 0 90 120" fill="none" xmlns="http://www.w3.org/2000/svg">
<g clip-path="url(#clip0_1231_4058)">
<path d="M0 12C0 5.37259 5.37258 0 12 0H51L90 39V108C90 114.627 84.6274 120 78 120H12C5.37258 120 0 114.627 0 108V12Z" fill="#2E2E2E"/>
<path d="M60 39H90L51 0V30C51 34.9706 55.0294 39 60 39Z" fill="white" fill-opacity="0.5"/>
</g>
<path d="M12.827 92.115H14.6858L17.1751 98.1908H17.2734L19.7627 92.115H21.6215V100.5H20.1639V94.7394H20.0861L17.7688 100.475H16.6797L14.3624 94.7271H14.2846V100.5H12.827V92.115ZM30.768 96.3075C30.768 97.211 30.5988 97.9848 30.2604 98.6289C29.9246 99.2704 29.4661 99.7617 28.8847 100.103C28.306 100.444 27.6496 100.615 26.9154 100.615C26.1811 100.615 25.5233 100.444 24.9419 100.103C24.3633 99.7589 23.9047 99.2663 23.5663 98.6248C23.2305 97.9807 23.0627 97.2082 23.0627 96.3075C23.0627 95.404 23.2305 94.6316 23.5663 93.9901C23.9047 93.346 24.3633 92.8533 24.9419 92.5121C25.5233 92.1709 26.1811 92.0003 26.9154 92.0003C27.6496 92.0003 28.306 92.1709 28.8847 92.5121C29.4661 92.8533 29.9246 93.346 30.2604 93.9901C30.5988 94.6316 30.768 95.404 30.768 96.3075ZM29.2409 96.3075C29.2409 95.6715 29.1413 95.1352 28.942 94.6984C28.7455 94.259 28.4725 93.9274 28.1232 93.7035C27.7738 93.477 27.3712 93.3637 26.9154 93.3637C26.4595 93.3637 26.0569 93.477 25.7076 93.7035C25.3582 93.9274 25.0839 94.259 24.8846 94.6984C24.6881 95.1352 24.5898 95.6715 24.5898 96.3075C24.5898 96.9435 24.6881 97.4812 24.8846 97.9206C25.0839 98.3573 25.3582 98.689 25.7076 98.9155C26.0569 99.1393 26.4595 99.2513 26.9154 99.2513C27.3712 99.2513 27.7738 99.1393 28.1232 98.9155C28.4725 98.689 28.7455 98.3573 28.942 97.9206C29.1413 97.4812 29.2409 96.9435 29.2409 96.3075ZM32.8756 92.115L35.0578 98.7149H35.1438L37.3219 92.115H38.9924L36.0363 100.5H34.1612L31.2092 92.115H32.8756ZM41.6158 92.115V100.5H40.0968V92.115H41.6158ZM43.2606 100.5V92.115H48.7142V93.3883H44.7796V95.6647H48.4317V96.938H44.7796V99.2267H48.7469V100.5H43.2606ZM51.1114 100.59C50.863 100.59 50.6501 100.503 50.4727 100.328C50.2952 100.153 50.2079 99.9405 50.2106 99.6893C50.2079 99.4437 50.2952 99.2335 50.4727 99.0588C50.6501 98.8841 50.863 98.7968 51.1114 98.7968C51.3516 98.7968 51.5604 98.8841 51.7378 99.0588C51.9179 99.2335 52.0094 99.4437 52.0121 99.6893C52.0094 99.8558 51.9657 100.007 51.8811 100.144C51.7992 100.28 51.69 100.389 51.5535 100.471C51.4198 100.55 51.2724 100.59 51.1114 100.59ZM53.6078 92.115H55.4666L57.9559 98.1908H58.0542L60.5435 92.115H62.4023V100.5H60.9447V94.7394H60.8669L58.5496 100.475H57.4605L55.1432 94.7271H55.0654V100.5H53.6078V92.115ZM64.0564 100.5V92.115H67.2007C67.8449 92.115 68.3854 92.2351 68.8221 92.4753C69.2615 92.7155 69.5932 93.0457 69.817 93.4661C70.0435 93.8837 70.1568 94.3586 70.1568 94.8909C70.1568 95.4286 70.0435 95.9062 69.817 96.3239C69.5904 96.7415 69.2561 97.0704 68.8139 97.3106C68.3717 97.548 67.8272 97.6668 67.1803 97.6668H65.0963V96.418H66.9756C67.3522 96.418 67.6607 96.3525 67.9009 96.2215C68.1411 96.0905 68.3185 95.9103 68.4331 95.6811C68.5505 95.4518 68.6092 95.1884 68.6092 94.8909C68.6092 94.5934 68.5505 94.3313 68.4331 94.1048C68.3185 93.8782 68.1397 93.7022 67.8968 93.5766C67.6566 93.4483 67.3468 93.3842 66.9674 93.3842H65.5753V100.5H64.0564ZM71.2428 98.9442V97.7364L74.8007 92.115H75.8079V93.8346H75.1938L72.7986 97.6299V97.6954H77.7649V98.9442H71.2428ZM75.2429 100.5V98.5757L75.2593 98.0353V92.115H76.6922V100.5H75.2429Z" fill="white"/>
<defs>
<clipPath id="clip0_1231_4058">
<rect width="90" height="120" fill="white"/>
</clipPath>
</defs>
</svg>
