<svg width="77" height="21" viewBox="0 0 77 21" fill="none" xmlns="http://www.w3.org/2000/svg">
<path d="M69.5845 10.6938L72.7041 2.34536H76.5989L70.7434 15.6069L68.3479 20.999H64.5623L67.6966 14.3663L62.7108 2.34536H66.5771L69.5845 10.6938ZM29.5787 2.04235C30.922 2.04235 32.1205 2.35094 33.1734 2.9681C34.2445 3.56718 35.0894 4.38394 35.7067 5.41872C36.3239 6.43537 36.6324 7.58876 36.6324 8.87773C36.6324 10.1666 36.3239 11.338 35.7067 12.3908C35.0894 13.4256 34.2445 14.2508 33.1734 14.868C32.1205 15.4671 30.9315 15.7672 29.6062 15.7672C28.281 15.7672 27.0825 15.4671 26.0114 14.868C24.9588 14.2509 24.1145 13.4254 23.4792 12.3908C22.8619 11.338 22.5534 10.1666 22.5534 8.87773C22.5534 7.58876 22.8619 6.43537 23.4792 5.41872C24.0964 4.38409 24.9405 3.56714 26.0114 2.9681C27.0824 2.35091 28.2717 2.04242 29.5787 2.04235ZM58.5365 2.34241H61.5951V5.47381H58.5306L58.5178 12.5699H60.7717V15.4957H54.9506V5.47381H51.8733V2.34241H54.9506V0.48796L58.5405 0L58.5365 2.34241ZM15.5488 2.0699C16.5291 2.0699 17.4097 2.27909 18.1903 2.69657C18.9709 3.09597 19.5889 3.67639 20.0428 4.43886C20.4966 5.2013 20.7235 6.10913 20.7236 7.162V15.4947H17.1563V7.73456C17.1563 6.97208 16.9106 6.38129 16.4205 5.96374C15.9485 5.5282 15.3585 5.3105 14.6506 5.3105C14.1968 5.31051 13.7701 5.40993 13.3707 5.60958C12.9895 5.79111 12.6903 6.06405 12.4725 6.42711C12.2546 6.79019 12.1449 7.22624 12.1449 7.73456V15.4947H8.57767V7.73456C8.57767 6.97208 8.33295 6.38129 7.84278 5.96374C7.37085 5.52816 6.78079 5.31056 6.07294 5.3105C5.60108 5.3105 5.17418 5.41001 4.79303 5.60958C4.41179 5.79112 4.1117 6.06402 3.89384 6.42711C3.67608 6.79015 3.56723 7.22635 3.56723 7.73456V15.4947H0V2.34241H3.56723V3.48557C3.88651 3.17364 4.24888 2.91002 4.65628 2.69657C5.41877 2.27902 6.28147 2.0699 7.24365 2.0699C8.15136 2.0699 8.9775 2.27902 9.72182 2.69657C10.3464 3.03173 10.8611 3.48898 11.2683 4.06699C11.7086 3.50462 12.245 3.05548 12.8808 2.72313C13.6794 2.2876 14.5688 2.06996 15.5488 2.0699ZM46.1172 2.0699C47.0793 2.0699 47.9421 2.31464 48.7045 2.80479C49.467 3.27678 50.0662 3.90325 50.5019 4.68383C50.9376 5.44625 51.1551 6.27251 51.1552 7.162V15.4947H47.5879V7.95198C47.5879 7.17136 47.3432 6.53556 46.853 6.04539C46.3629 5.55523 45.7271 5.31051 44.9465 5.3105C44.4382 5.3105 43.9843 5.4193 43.5849 5.63712C43.1855 5.85495 42.8676 6.16353 42.6316 6.56287C42.4137 6.96227 42.305 7.4255 42.305 7.95198V15.4947H38.7377V2.34241H42.305V3.57706C42.6303 3.24303 43.0018 2.95743 43.4216 2.72313C44.2203 2.28754 45.1189 2.06993 46.1172 2.0699ZM29.5787 5.39216C28.9254 5.39223 28.3445 5.54606 27.8364 5.85454C27.328 6.14501 26.9286 6.55386 26.6381 7.08034C26.3477 7.60669 26.2023 8.21464 26.2023 8.90429C26.2023 9.59416 26.3476 10.2121 26.6381 10.7568C26.9286 11.2831 27.3281 11.7006 27.8364 12.0091C28.3446 12.2995 28.9253 12.4449 29.5787 12.445C30.2504 12.445 30.8412 12.2996 31.3495 12.0091C31.8758 11.7005 32.2755 11.2831 32.5477 10.7568C32.8382 10.2121 32.9826 9.59416 32.9826 8.90429C32.9825 8.21472 32.838 7.60665 32.5477 7.08034C32.2573 6.55392 31.8577 6.145 31.3495 5.85454C30.8412 5.54591 30.2504 5.39216 29.5787 5.39216Z" fill="white"/>
</svg>
